<svg xmlns="http://www.w3.org/2000/svg" xmlns:xlink="http://www.w3.org/1999/xlink" xmlns:lucid="lucid" width="1242" height="882"><g transform="translate(-59 -239)" lucid:page-tab-id="EOEeWRKYFWIC"><path d="M0 0h1360v1760H0z" fill="#fff"/><path d="M160 510l60-50h480v440l-50 60H160z" stroke="#000" stroke-width="2" fill="#fff"/><path d="M160 510l60-50h480l-50 50z" stroke="#000" stroke-width="2" fill="#e6e6e6"/><path d="M650 510l50-50v440l-50 60z" stroke="#000" stroke-width="2" fill="#ccc"/><use xlink:href="#a" transform="matrix(1,0,0,1,168,518) translate(151.025 14.4)"/><use xlink:href="#b" transform="matrix(1,0,0,1,168,518) translate(159.075 36)"/><path d="M180 612l38.4-32H600v281.6L568 900H180z" stroke="#000" stroke-width="2" fill="#fff"/><path d="M180 612l38.4-32H600l-32 32z" stroke="#000" stroke-width="2" fill="#e6e6e6"/><path d="M568 612l32-32v281.6L568 900z" stroke="#000" stroke-width="2" fill="#ccc"/><use xlink:href="#c" transform="matrix(1,0,0,1,188,620) translate(124 14.4)"/><use xlink:href="#d" transform="matrix(1,0,0,1,188,620) translate(119 36)"/><use xlink:href="#e" transform="matrix(1,0,0,1,188,620) translate(155 36)"/><path d="M220 712l14.4-12H460v105.6L448 820H220z" stroke="#000" stroke-width="2" fill="#fff"/><path d="M220 712l14.4-12H460l-12 12z" stroke="#000" stroke-width="2" fill="#e6e6e6"/><path d="M448 712l12-12v105.6L448 820z" stroke="#000" stroke-width="2" fill="#ccc"/><use xlink:href="#f" transform="matrix(1,0,0,1,228,720) translate(47.05 14.4)"/><use xlink:href="#g" transform="matrix(1,0,0,1,228,720) translate(25.025 36)"/><path d="M780 500h388l12 12v48H780z" stroke="#d9be60" stroke-width="2" fill="#ffdf71"/><path d="M1168 500v12h12" fill="#d9be60"/><use xlink:href="#h" transform="matrix(1,0,0,1,785,505) translate(1.200000000000017 17.799999999999997)"/><use xlink:href="#i" transform="matrix(1,0,0,1,785,505) translate(37.20000000000002 17.799999999999997)"/><use xlink:href="#j" transform="matrix(1,0,0,1,785,505) translate(98.15000000000002 17.799999999999997)"/><use xlink:href="#k" transform="matrix(1,0,0,1,785,505) translate(166.10000000000002 17.799999999999997)"/><use xlink:href="#l" transform="matrix(1,0,0,1,785,505) translate(186.10000000000002 17.799999999999997)"/><use xlink:href="#m" transform="matrix(1,0,0,1,785,505) translate(251.00000000000003 17.799999999999997)"/><use xlink:href="#n" transform="matrix(1,0,0,1,785,505) translate(285.95000000000005 17.799999999999997)"/><use xlink:href="#o" transform="matrix(1,0,0,1,785,505) translate(348.85 17.799999999999997)"/><use xlink:href="#p" transform="matrix(1,0,0,1,785,505) translate(373.85 17.799999999999997)"/><use xlink:href="#q" transform="matrix(1,0,0,1,785,505) translate(167.05 39.4)"/><path d="M760 683.33h480V1020H760z" stroke="#000" stroke-opacity="0" stroke-width="2" fill="#fff" fill-opacity="0"/><use xlink:href="#r" transform="matrix(1,0,0,1,765,688.3333333333335) translate(0 17.77777777777778)"/><use xlink:href="#s" transform="matrix(1,0,0,1,765,688.3333333333335) translate(98.64197530864197 17.77777777777778)"/><use xlink:href="#t" transform="matrix(1,0,0,1,765,688.3333333333335) translate(0 44.44444444444444)"/><use xlink:href="#u" transform="matrix(1,0,0,1,765,688.3333333333335) translate(0 71.11111111111111)"/><use xlink:href="#v" transform="matrix(1,0,0,1,765,688.3333333333335) translate(48.02469135802469 71.11111111111111)"/><use xlink:href="#w" transform="matrix(1,0,0,1,765,688.3333333333335) translate(70.18518518518519 71.11111111111111)"/><use xlink:href="#x" transform="matrix(1,0,0,1,765,688.3333333333335) translate(88.70370370370371 71.11111111111111)"/><use xlink:href="#y" transform="matrix(1,0,0,1,765,688.3333333333335) translate(178.7037037037037 71.11111111111111)"/><use xlink:href="#z" transform="matrix(1,0,0,1,765,688.3333333333335) translate(251.41975308641975 71.11111111111111)"/><use xlink:href="#w" transform="matrix(1,0,0,1,765,688.3333333333335) translate(294.6296296296296 71.11111111111111)"/><use xlink:href="#A" transform="matrix(1,0,0,1,765,688.3333333333335) translate(313.14814814814815 71.11111111111111)"/><use xlink:href="#B" transform="matrix(1,0,0,1,765,688.3333333333335) translate(368.641975308642 71.11111111111111)"/><use xlink:href="#C" transform="matrix(1,0,0,1,765,688.3333333333335) translate(0 97.77777777777777)"/><use xlink:href="#D" transform="matrix(1,0,0,1,765,688.3333333333335) translate(87.5925925925926 97.77777777777777)"/><use xlink:href="#E" transform="matrix(1,0,0,1,765,688.3333333333335) translate(160.37037037037038 97.77777777777777)"/><use xlink:href="#F" transform="matrix(1,0,0,1,765,688.3333333333335) translate(185.06172839506175 97.77777777777777)"/><use xlink:href="#G" transform="matrix(1,0,0,1,765,688.3333333333335) translate(252.90123456790127 97.77777777777777)"/><use xlink:href="#H" transform="matrix(1,0,0,1,765,688.3333333333335) translate(334.320987654321 97.77777777777777)"/><use xlink:href="#I" transform="matrix(1,0,0,1,765,688.3333333333335) translate(420.6172839506173 97.77777777777777)"/><use xlink:href="#J" transform="matrix(1,0,0,1,765,688.3333333333335) translate(0 124.44444444444446)"/><use xlink:href="#K" transform="matrix(1,0,0,1,765,688.3333333333335) translate(77.71604938271604 124.44444444444446)"/><use xlink:href="#L" transform="matrix(1,0,0,1,765,688.3333333333335) translate(141.85185185185185 124.44444444444446)"/><use xlink:href="#M" transform="matrix(1,0,0,1,765,688.3333333333335) translate(190 124.44444444444446)"/><use xlink:href="#N" transform="matrix(1,0,0,1,765,688.3333333333335) translate(298.51851851851853 124.44444444444446)"/><use xlink:href="#O" transform="matrix(1,0,0,1,765,688.3333333333335) translate(347.77777777777777 124.44444444444446)"/><use xlink:href="#P" transform="matrix(1,0,0,1,765,688.3333333333335) translate(425.4938271604938 124.44444444444446)"/><use xlink:href="#Q" transform="matrix(1,0,0,1,765,688.3333333333335) translate(0 151.11111111111111)"/><use xlink:href="#R" transform="matrix(1,0,0,1,765,688.3333333333335) translate(77.77777777777777 151.11111111111111)"/><use xlink:href="#S" transform="matrix(1,0,0,1,765,688.3333333333335) translate(114.81481481481481 151.11111111111111)"/><use xlink:href="#T" transform="matrix(1,0,0,1,765,688.3333333333335) translate(186.35802469135803 151.11111111111111)"/><use xlink:href="#E" transform="matrix(1,0,0,1,765,688.3333333333335) translate(216.79012345679013 151.11111111111111)"/><use xlink:href="#U" transform="matrix(1,0,0,1,765,688.3333333333335) translate(241.4814814814815 151.11111111111111)"/><use xlink:href="#A" transform="matrix(1,0,0,1,765,688.3333333333335) translate(298.2098765432099 151.11111111111111)"/><use xlink:href="#V" transform="matrix(1,0,0,1,765,688.3333333333335) translate(353.7037037037037 151.11111111111111)"/><use xlink:href="#W" transform="matrix(1,0,0,1,765,688.3333333333335) translate(0 177.77777777777777)"/><use xlink:href="#X" transform="matrix(1,0,0,1,765,688.3333333333335) translate(82.53086419753087 177.77777777777777)"/><use xlink:href="#R" transform="matrix(1,0,0,1,765,688.3333333333335) translate(105.92592592592594 177.77777777777777)"/><use xlink:href="#Y" transform="matrix(1,0,0,1,765,688.3333333333335) translate(142.962962962963 177.77777777777777)"/><use xlink:href="#Z" transform="matrix(1,0,0,1,765,688.3333333333335) translate(299.44444444444446 177.77777777777777)"/><use xlink:href="#aa" transform="matrix(1,0,0,1,765,688.3333333333335) translate(366.11111111111114 177.77777777777777)"/><use xlink:href="#ab" transform="matrix(1,0,0,1,765,688.3333333333335) translate(409.320987654321 177.77777777777777)"/><use xlink:href="#ac" transform="matrix(1,0,0,1,765,688.3333333333335) translate(0 204.44444444444443)"/><use xlink:href="#ad" transform="matrix(1,0,0,1,765,688.3333333333335) translate(114.69135802469137 204.44444444444443)"/><use xlink:href="#ae" transform="matrix(1,0,0,1,765,688.3333333333335) translate(171.41975308641975 204.44444444444443)"/><use xlink:href="#af" transform="matrix(1,0,0,1,765,688.3333333333335) translate(270.12345679012344 204.44444444444443)"/><use xlink:href="#ag" transform="matrix(1,0,0,1,765,688.3333333333335) translate(0 231.1111111111111)"/><use xlink:href="#ah" transform="matrix(1,0,0,1,765,688.3333333333335) translate(167.4691358024691 231.1111111111111)"/><use xlink:href="#ai" transform="matrix(1,0,0,1,765,688.3333333333335) translate(201.91358024691357 231.1111111111111)"/><use xlink:href="#aj" transform="matrix(1,0,0,1,765,688.3333333333335) translate(269.69135802469134 231.1111111111111)"/><use xlink:href="#ak" transform="matrix(1,0,0,1,765,688.3333333333335) translate(315.2469135802469 231.1111111111111)"/><use xlink:href="#al" transform="matrix(1,0,0,1,765,688.3333333333335) translate(375.679012345679 231.1111111111111)"/><use xlink:href="#am" transform="matrix(1,0,0,1,765,688.3333333333335) translate(0 257.77777777777777)"/><use xlink:href="#an" transform="matrix(1,0,0,1,765,688.3333333333335) translate(70.30864197530863 257.77777777777777)"/><use xlink:href="#ao" transform="matrix(1,0,0,1,765,688.3333333333335) translate(94.99999999999999 257.77777777777777)"/><use xlink:href="#ap" transform="matrix(1,0,0,1,765,688.3333333333335) translate(198.5185185185185 257.77777777777777)"/><use xlink:href="#ah" transform="matrix(1,0,0,1,765,688.3333333333335) translate(246.5432098765432 257.77777777777777)"/><use xlink:href="#v" transform="matrix(1,0,0,1,765,688.3333333333335) translate(280.98765432098764 257.77777777777777)"/><use xlink:href="#aq" transform="matrix(1,0,0,1,765,688.3333333333335) translate(303.14814814814815 257.77777777777777)"/><use xlink:href="#ar" transform="matrix(1,0,0,1,765,688.3333333333335) translate(351.2962962962963 257.77777777777777)"/><use xlink:href="#as" transform="matrix(1,0,0,1,765,688.3333333333335) translate(388.33333333333337 257.77777777777777)"/><use xlink:href="#at" transform="matrix(1,0,0,1,765,688.3333333333335) translate(0 284.4444444444444)"/><use xlink:href="#E" transform="matrix(1,0,0,1,765,688.3333333333335) translate(108.51851851851852 284.4444444444444)"/><use xlink:href="#au" transform="matrix(1,0,0,1,765,688.3333333333335) translate(133.20987654320987 284.4444444444444)"/><use xlink:href="#av" transform="matrix(1,0,0,1,765,688.3333333333335) translate(195.98765432098764 284.4444444444444)"/><use xlink:href="#N" transform="matrix(1,0,0,1,765,688.3333333333335) translate(226.85185185185185 284.4444444444444)"/><use xlink:href="#aw" transform="matrix(1,0,0,1,765,688.3333333333335) translate(276.1111111111111 284.4444444444444)"/><use xlink:href="#ax" transform="matrix(1,0,0,1,765,688.3333333333335) translate(361.29629629629625 284.4444444444444)"/><use xlink:href="#ay" transform="matrix(1,0,0,1,765,688.3333333333335) translate(416.79012345679007 284.4444444444444)"/><use xlink:href="#az" transform="matrix(1,0,0,1,765,688.3333333333335) translate(458.76543209876536 284.4444444444444)"/><use xlink:href="#E" transform="matrix(1,0,0,1,765,688.3333333333335) translate(0 311.1111111111111)"/><use xlink:href="#aA" transform="matrix(1,0,0,1,765,688.3333333333335) translate(24.691358024691358 311.1111111111111)"/><use xlink:href="#av" transform="matrix(1,0,0,1,765,688.3333333333335) translate(79.01234567901234 311.1111111111111)"/><use xlink:href="#R" transform="matrix(1,0,0,1,765,688.3333333333335) translate(109.87654320987653 311.1111111111111)"/><use xlink:href="#aB" transform="matrix(1,0,0,1,765,688.3333333333335) translate(146.91358024691357 311.1111111111111)"/><use xlink:href="#aC" transform="matrix(1,0,0,1,765,688.3333333333335) translate(228.2716049382716 311.1111111111111)"/><use xlink:href="#an" transform="matrix(1,0,0,1,765,688.3333333333335) translate(305.98765432098764 311.1111111111111)"/><use xlink:href="#w" transform="matrix(1,0,0,1,765,688.3333333333335) translate(330.679012345679 311.1111111111111)"/><use xlink:href="#aD" transform="matrix(1,0,0,1,765,688.3333333333335) translate(349.1975308641975 311.1111111111111)"/><path d="M780 580h388l12 12v48H780z" stroke="#d9be60" stroke-width="2" fill="#ffdf71"/><path d="M1168 580v12h12" fill="#d9be60"/><g><use xlink:href="#aE" transform="matrix(1,0,0,1,785,585) translate(7.275000000000006 28.6)"/><use xlink:href="#aF" transform="matrix(1,0,0,1,785,585) translate(46.17500000000001 28.6)"/><use xlink:href="#aG" transform="matrix(1,0,0,1,785,585) translate(81.17500000000001 28.6)"/><use xlink:href="#aH" transform="matrix(1,0,0,1,785,585) translate(121.12500000000001 28.6)"/><use xlink:href="#m" transform="matrix(1,0,0,1,785,585) translate(140.07500000000002 28.6)"/><use xlink:href="#n" transform="matrix(1,0,0,1,785,585) translate(175.025 28.6)"/><use xlink:href="#o" transform="matrix(1,0,0,1,785,585) translate(237.925 28.6)"/><use xlink:href="#aI" transform="matrix(1,0,0,1,785,585) translate(262.925 28.6)"/><use xlink:href="#aJ" transform="matrix(1,0,0,1,785,585) translate(283.875 28.6)"/><use xlink:href="#aK" transform="matrix(1,0,0,1,785,585) translate(345.775 28.6)"/></g><path d="M759.02 851.47l-370.04-73.94" stroke="#000" stroke-width="2" fill="none"/><path d="M760 850.65v2.04l-1.2-.25.4-1.97z" stroke="#000" stroke-width=".05"/><path d="M389 777.53l-1-.2M778 530.04L521 541.3" stroke="#000" stroke-width="2" fill="none"/><path d="M779 531l-.98.04-.1-2L779 529z" stroke="#000" stroke-width=".05"/><path d="M521.02 541.3l-1.02.03M778.05 610.3L399.62 735.7" stroke="#000" stroke-width="2" fill="none"/><path d="M779 611.05l-.66.22-.63-1.9 1.3-.42z" stroke="#000" stroke-width=".05"/><path d="M399.64 735.68l-.97.32" stroke="#000" stroke-width="2" fill="none"/><path d="M80 260h1200v138H80z" stroke="#000" stroke-opacity="0" stroke-width="2" fill="#fff" fill-opacity="0"/><g><use xlink:href="#aL" transform="matrix(1,0,0,1,85,265) translate(375.96296296296293 42.66666666666667)"/><use xlink:href="#aM" transform="matrix(1,0,0,1,85,265) translate(556.5555555555555 42.66666666666667)"/><use xlink:href="#aN" transform="matrix(1,0,0,1,85,265) translate(695.5185185185185 42.66666666666667)"/><use xlink:href="#aO" transform="matrix(1,0,0,1,85,265) translate(282.5555555555555 106.66666666666667)"/><use xlink:href="#aP" transform="matrix(1,0,0,1,85,265) translate(407.7407407407407 106.66666666666667)"/><use xlink:href="#aQ" transform="matrix(1,0,0,1,85,265) translate(706.5555555555557 106.66666666666667)"/></g><path d="M560 1040h240v60H560z" stroke="#000" stroke-opacity="0" stroke-width="2" fill="#fff" fill-opacity="0"/><g><use xlink:href="#aR" transform="matrix(1,0,0,1,565,1045) translate(51.05 17.799999999999997)"/><use xlink:href="#aS" transform="matrix(1,0,0,1,565,1045) translate(75.05 17.799999999999997)"/><use xlink:href="#aT" transform="matrix(1,0,0,1,565,1045) translate(113 17.799999999999997)"/><use xlink:href="#aU" transform="matrix(1,0,0,1,565,1045) translate(67.5 39.4)"/><use xlink:href="#aV" transform="matrix(1,0,0,1,565,1045) translate(92.5 39.4)"/></g><defs><path d="M142-25L97-88v-13l45-64h42c-9 30-32 46-45 71l45 63v6h-42zm-80 0L16-88v-13l46-64h41c-9 30-32 46-45 71l45 63v6H62" id="aW"/><path d="M88-194c31-1 46 15 58 34l-1-101h50l1 261h-48c-2-10 0-23-3-31C134-8 116 4 84 4 32 4 16-41 15-95c0-56 19-97 73-99zm17 164c33 0 40-30 41-66 1-37-9-64-41-64s-38 30-39 65c0 43 13 65 39 65" id="aX"/><path d="M185-48c-13 30-37 53-82 52C43 2 14-33 14-96s30-98 90-98c62 0 83 45 84 108H66c0 31 8 55 39 56 18 0 30-7 34-22zm-45-69c5-46-57-63-70-21-2 6-4 13-4 21h74" id="aY"/><path d="M128 0H69L1-190h53L99-40l48-150h52" id="aZ"/><path d="M25-224v-37h50v37H25zM25 0v-190h50V0H25" id="ba"/><path d="M190-63c-7 42-38 67-86 67-59 0-84-38-90-98-12-110 154-137 174-36l-49 2c-2-19-15-32-35-32-30 0-35 28-38 64-6 74 65 87 74 30" id="bb"/><path d="M16-25v-6l45-63-44-65v-6h42l45 64v13L59-25H16zm81 0v-6l45-63-45-65v-6h42l45 64v13l-45 63H97" id="bc"/><g id="a"><use transform="matrix(0.05,0,0,0.05,0,0)" xlink:href="#aW"/><use transform="matrix(0.05,0,0,0.05,10,0)" xlink:href="#aX"/><use transform="matrix(0.05,0,0,0.05,20.950000000000003,0)" xlink:href="#aY"/><use transform="matrix(0.05,0,0,0.05,30.950000000000003,0)" xlink:href="#aZ"/><use transform="matrix(0.05,0,0,0.05,40.95,0)" xlink:href="#ba"/><use transform="matrix(0.05,0,0,0.05,45.95,0)" xlink:href="#bb"/><use transform="matrix(0.05,0,0,0.05,55.95,0)" xlink:href="#aY"/><use transform="matrix(0.05,0,0,0.05,65.95,0)" xlink:href="#bc"/></g><path d="M24-248c93 1 206-16 204 79-1 75-69 88-152 82V0H24v-248zm52 121c47 0 100 7 100-41 0-47-54-39-100-39v80" id="bd"/><path d="M114-157C55-157 80-60 75 0H25v-261h50l-1 109c12-26 28-41 61-42 86-1 58 113 63 194h-50c-7-57 23-157-34-157" id="be"/><path d="M110-194c64 0 96 36 96 99 0 64-35 99-97 99-61 0-95-36-95-99 0-62 34-99 96-99zm-1 164c35 0 45-28 45-65 0-40-10-65-43-65-34 0-45 26-45 65 0 36 10 65 43 65" id="bf"/><path d="M135-194c87-1 58 113 63 194h-50c-7-57 23-157-34-157-59 0-34 97-39 157H25l-1-190h47c2 12-1 28 3 38 12-26 28-41 61-42" id="bg"/><g id="b"><use transform="matrix(0.05,0,0,0.05,0,0)" xlink:href="#ba"/><use transform="matrix(0.05,0,0,0.05,5,0)" xlink:href="#bd"/><use transform="matrix(0.05,0,0,0.05,17,0)" xlink:href="#be"/><use transform="matrix(0.05,0,0,0.05,27.950000000000003,0)" xlink:href="#bf"/><use transform="matrix(0.05,0,0,0.05,38.900000000000006,0)" xlink:href="#bg"/><use transform="matrix(0.05,0,0,0.05,49.85000000000001,0)" xlink:href="#aY"/></g><path d="M140-251c80 0 125 45 125 126S219 4 139 4C58 4 15-44 15-125s44-126 125-126zm-1 214c52 0 73-35 73-88 0-50-21-86-72-86-52 0-73 35-73 86s22 88 72 88" id="bh"/><path d="M169-182c-1-43-94-46-97-3 18 66 151 10 154 114 3 95-165 93-204 36-6-8-10-19-12-30l50-8c3 46 112 56 116 5-17-69-150-10-154-114-4-87 153-88 188-35 5 8 8 18 10 28" id="bi"/><g id="c"><use transform="matrix(0.05,0,0,0.05,0,0)" xlink:href="#aW"/><use transform="matrix(0.05,0,0,0.05,10,0)" xlink:href="#bh"/><use transform="matrix(0.05,0,0,0.05,24,0)" xlink:href="#bi"/><use transform="matrix(0.05,0,0,0.05,36,0)" xlink:href="#bc"/></g><g id="d"><use transform="matrix(0.05,0,0,0.05,0,0)" xlink:href="#ba"/><use transform="matrix(0.05,0,0,0.05,5,0)" xlink:href="#bh"/><use transform="matrix(0.05,0,0,0.05,19,0)" xlink:href="#bi"/></g><path d="M23 0v-37h61v-169l-59 37v-38l62-41h46v211h57V0H23" id="bj"/><path d="M182-182c0 78-84 86-111 141h115V0H12c-6-101 99-100 120-180 1-22-12-31-33-32-23 0-32 14-35 34l-49-3c5-45 32-70 84-70 51 0 83 22 83 69" id="bk"/><g id="e"><use transform="matrix(0.05,0,0,0.05,0,0)" xlink:href="#bj"/><use transform="matrix(0.05,0,0,0.05,10,0)" xlink:href="#bk"/></g><path d="M156-25L96-89v-11l60-65h29v5l-59 66 60 64v5h-30zm-82 0L15-89v-11l59-65h29v5L44-94l59 64v5H74" id="bl"/><path d="M141-36C126-15 110 5 73 4 37 3 15-17 15-53c-1-64 63-63 125-63 3-35-9-54-41-54-24 1-41 7-42 31l-33-3c5-37 33-52 76-52 45 0 72 20 72 64v82c-1 20 7 32 28 27v20c-31 9-61-2-59-35zM48-53c0 20 12 33 32 33 41-3 63-29 60-74-43 2-92-5-92 41" id="bm"/><path d="M114-163C36-179 61-72 57 0H25l-1-190h30c1 12-1 29 2 39 6-27 23-49 58-41v29" id="bn"/><path d="M59-47c-2 24 18 29 38 22v24C64 9 27 4 27-40v-127H5v-23h24l9-43h21v43h35v23H59v120" id="bo"/><path d="M24-231v-30h32v30H24zM24 0v-190h32V0H24" id="bp"/><path d="M101-234c-31-9-42 10-38 44h38v23H63V0H32v-167H5v-23h27c-7-52 17-82 69-68v24" id="bq"/><path d="M96-169c-40 0-48 33-48 73s9 75 48 75c24 0 41-14 43-38l32 2c-6 37-31 61-74 61-59 0-76-41-82-99-10-93 101-131 147-64 4 7 5 14 7 22l-32 3c-4-21-16-35-41-35" id="br"/><path d="M126-25H97v-5l59-64-59-66v-5h29l60 65v11zm-82 0H15v-5l59-64-59-66v-5h29l59 65v11" id="bs"/><g id="f"><use transform="matrix(0.05,0,0,0.05,0,0)" xlink:href="#bl"/><use transform="matrix(0.05,0,0,0.05,10,0)" xlink:href="#bm"/><use transform="matrix(0.05,0,0,0.05,20,0)" xlink:href="#bn"/><use transform="matrix(0.05,0,0,0.05,25.950000000000003,0)" xlink:href="#bo"/><use transform="matrix(0.05,0,0,0.05,30.950000000000003,0)" xlink:href="#bp"/><use transform="matrix(0.05,0,0,0.05,34.9,0)" xlink:href="#bq"/><use transform="matrix(0.05,0,0,0.05,39.9,0)" xlink:href="#bm"/><use transform="matrix(0.05,0,0,0.05,49.9,0)" xlink:href="#br"/><use transform="matrix(0.05,0,0,0.05,58.900000000000006,0)" xlink:href="#bo"/><use transform="matrix(0.05,0,0,0.05,63.900000000000006,0)" xlink:href="#bs"/><path d="M-.9 1.25h75.7v1.32H-.9z"/></g><path d="M185-189c-5-48-123-54-124 2 14 75 158 14 163 119 3 78-121 87-175 55-17-10-28-26-33-46l33-7c5 56 141 63 141-1 0-78-155-14-162-118-5-82 145-84 179-34 5 7 8 16 11 25" id="bt"/><path d="M106-169C34-169 62-67 57 0H25v-261h32l-1 103c12-21 28-36 61-36 89 0 53 116 60 194h-32v-121c2-32-8-49-39-48" id="bu"/><path d="M100-194c62-1 85 37 85 99 1 63-27 99-86 99S16-35 15-95c0-66 28-99 85-99zM99-20c44 1 53-31 53-75 0-43-8-75-51-75s-53 32-53 75 10 74 51 75" id="bv"/><path d="M115-194c55 1 70 41 70 98S169 2 115 4C84 4 66-9 55-30l1 105H24l-1-265h31l2 30c10-21 28-34 59-34zm-8 174c40 0 45-34 45-75s-6-73-45-74c-42 0-51 32-51 76 0 43 10 73 51 73" id="bw"/><path d="M117-194c89-4 53 116 60 194h-32v-121c0-31-8-49-39-48C34-167 62-67 57 0H25l-1-190h30c1 10-1 24 2 32 11-22 29-35 61-36" id="bx"/><path d="M177-190C167-65 218 103 67 71c-23-6-38-20-44-43l32-5c15 47 100 32 89-28v-30C133-14 115 1 83 1 29 1 15-40 15-95c0-56 16-97 71-98 29-1 48 16 59 35 1-10 0-23 2-32h30zM94-22c36 0 50-32 50-73 0-42-14-75-50-75-39 0-46 34-46 75s6 73 46 73" id="by"/><path d="M205 0l-28-72H64L36 0H1l101-248h38L239 0h-34zm-38-99l-47-123c-12 45-31 82-46 123h93" id="bz"/><g id="g"><use transform="matrix(0.05,0,0,0.05,0,0)" xlink:href="#bm"/><use transform="matrix(0.05,0,0,0.05,10,0)" xlink:href="#bt"/><use transform="matrix(0.05,0,0,0.05,22,0)" xlink:href="#bu"/><use transform="matrix(0.05,0,0,0.05,32,0)" xlink:href="#bv"/><use transform="matrix(0.05,0,0,0.05,42,0)" xlink:href="#bw"/><use transform="matrix(0.05,0,0,0.05,52,0)" xlink:href="#bw"/><use transform="matrix(0.05,0,0,0.05,62,0)" xlink:href="#bp"/><use transform="matrix(0.05,0,0,0.05,65.95,0)" xlink:href="#bx"/><use transform="matrix(0.05,0,0,0.05,75.95,0)" xlink:href="#by"/><use transform="matrix(0.05,0,0,0.05,85.95,0)" xlink:href="#bz"/><use transform="matrix(0.05,0,0,0.05,97.95,0)" xlink:href="#bw"/><use transform="matrix(0.05,0,0,0.05,107.95,0)" xlink:href="#bw"/><path d="M-.9 1.25h119.75v1.32H-.9z"/></g><path d="M179-190L93 31C79 59 56 82 12 73V49c39 6 53-20 64-50L1-190h34L92-34l54-156h33" id="bA"/><g id="h"><use transform="matrix(0.05,0,0,0.05,0,0)" xlink:href="#bz"/><use transform="matrix(0.05,0,0,0.05,12,0)" xlink:href="#bx"/><use transform="matrix(0.05,0,0,0.05,22,0)" xlink:href="#bA"/></g><path d="M30-248c87 1 191-15 191 75 0 78-77 80-158 76V0H30v-248zm33 125c57 0 124 11 124-50 0-59-68-47-124-48v98" id="bB"/><path d="M100-194c63 0 86 42 84 106H49c0 40 14 67 53 68 26 1 43-12 49-29l28 8c-11 28-37 45-77 45C44 4 14-33 15-96c1-61 26-98 85-98zm52 81c6-60-76-77-97-28-3 7-6 17-6 28h103" id="bC"/><g id="i"><use transform="matrix(0.05,0,0,0.05,0,0)" xlink:href="#bp"/><use transform="matrix(0.05,0,0,0.05,3.95,0)" xlink:href="#bB"/><use transform="matrix(0.05,0,0,0.05,15.949999999999998,0)" xlink:href="#bu"/><use transform="matrix(0.05,0,0,0.05,25.950000000000003,0)" xlink:href="#bv"/><use transform="matrix(0.05,0,0,0.05,35.95,0)" xlink:href="#bx"/><use transform="matrix(0.05,0,0,0.05,45.95,0)" xlink:href="#bC"/></g><path d="M115-194c53 0 69 39 70 98 0 66-23 100-70 100C84 3 66-7 56-30L54 0H23l1-261h32v101c10-23 28-34 59-34zm-8 174c40 0 45-34 45-75 0-40-5-75-45-74-42 0-51 32-51 76 0 43 10 73 51 73" id="bD"/><path d="M24 0v-261h32V0H24" id="bE"/><g id="j"><use transform="matrix(0.05,0,0,0.05,0,0)" xlink:href="#br"/><use transform="matrix(0.05,0,0,0.05,9,0)" xlink:href="#bm"/><use transform="matrix(0.05,0,0,0.05,19,0)" xlink:href="#bw"/><use transform="matrix(0.05,0,0,0.05,29,0)" xlink:href="#bm"/><use transform="matrix(0.05,0,0,0.05,39,0)" xlink:href="#bD"/><use transform="matrix(0.05,0,0,0.05,49,0)" xlink:href="#bE"/><use transform="matrix(0.05,0,0,0.05,52.95,0)" xlink:href="#bC"/></g><g id="k"><use transform="matrix(0.05,0,0,0.05,0,0)" xlink:href="#bv"/><use transform="matrix(0.05,0,0,0.05,10,0)" xlink:href="#bq"/></g><path d="M84 4C-5 8 30-112 23-190h32v120c0 31 7 50 39 49 72-2 45-101 50-169h31l1 190h-30c-1-10 1-25-2-33-11 22-28 36-60 37" id="bF"/><g id="l"><use transform="matrix(0.05,0,0,0.05,0,0)" xlink:href="#bn"/><use transform="matrix(0.05,0,0,0.05,5.95,0)" xlink:href="#bF"/><use transform="matrix(0.05,0,0,0.05,15.949999999999998,0)" xlink:href="#bx"/><use transform="matrix(0.05,0,0,0.05,25.950000000000003,0)" xlink:href="#bx"/><use transform="matrix(0.05,0,0,0.05,35.95,0)" xlink:href="#bp"/><use transform="matrix(0.05,0,0,0.05,39.900000000000006,0)" xlink:href="#bx"/><use transform="matrix(0.05,0,0,0.05,49.900000000000006,0)" xlink:href="#by"/></g><path d="M140-251c81 0 123 46 123 126C263-46 219 4 140 4 59 4 17-45 17-125s42-126 123-126zm0 227c63 0 89-41 89-101s-29-99-89-99c-61 0-89 39-89 99S79-25 140-24" id="bG"/><g id="m"><use transform="matrix(0.05,0,0,0.05,0,0)" xlink:href="#bp"/><use transform="matrix(0.05,0,0,0.05,3.95,0)" xlink:href="#bG"/><use transform="matrix(0.05,0,0,0.05,17.95,0)" xlink:href="#bt"/></g><path d="M108 0H70L1-190h34L89-25l56-165h34" id="bH"/><path d="M135-143c-3-34-86-38-87 0 15 53 115 12 119 90S17 21 10-45l28-5c4 36 97 45 98 0-10-56-113-15-118-90-4-57 82-63 122-42 12 7 21 19 24 35" id="bI"/><g id="n"><use transform="matrix(0.05,0,0,0.05,0,0)" xlink:href="#bH"/><use transform="matrix(0.05,0,0,0.05,9,0)" xlink:href="#bC"/><use transform="matrix(0.05,0,0,0.05,19,0)" xlink:href="#bn"/><use transform="matrix(0.05,0,0,0.05,24.95,0)" xlink:href="#bI"/><use transform="matrix(0.05,0,0,0.05,33.95,0)" xlink:href="#bp"/><use transform="matrix(0.05,0,0,0.05,37.900000000000006,0)" xlink:href="#bv"/><use transform="matrix(0.05,0,0,0.05,47.900000000000006,0)" xlink:href="#bx"/></g><path d="M27 0v-27h64v-190l-56 39v-29l58-41h29v221h61V0H27" id="bJ"/><path d="M101-251c82-7 93 87 43 132L82-64C71-53 59-42 53-27h129V0H18c2-99 128-94 128-182 0-28-16-43-45-43s-46 15-49 41l-32-3c6-41 34-60 81-64" id="bK"/><g id="o"><use transform="matrix(0.05,0,0,0.05,0,0)" xlink:href="#bJ"/><use transform="matrix(0.05,0,0,0.05,10,0)" xlink:href="#bK"/></g><g id="p"><use transform="matrix(0.05,0,0,0.05,0,0)" xlink:href="#bv"/><use transform="matrix(0.05,0,0,0.05,10,0)" xlink:href="#bn"/></g><g id="q"><use transform="matrix(0.05,0,0,0.05,0,0)" xlink:href="#by"/><use transform="matrix(0.05,0,0,0.05,10,0)" xlink:href="#bn"/><use transform="matrix(0.05,0,0,0.05,15.949999999999998,0)" xlink:href="#bC"/><use transform="matrix(0.05,0,0,0.05,25.950000000000003,0)" xlink:href="#bm"/><use transform="matrix(0.05,0,0,0.05,35.95,0)" xlink:href="#bo"/><use transform="matrix(0.05,0,0,0.05,40.95,0)" xlink:href="#bC"/><use transform="matrix(0.05,0,0,0.05,50.95,0)" xlink:href="#bn"/></g><path d="M33 0v-248h34V0H33" id="bL"/><g id="r"><use transform="matrix(0.06172839506172839,0,0,0.06172839506172839,0,0)" xlink:href="#bL"/><use transform="matrix(0.06172839506172839,0,0,0.06172839506172839,6.172839506172839,0)" xlink:href="#bx"/><use transform="matrix(0.06172839506172839,0,0,0.06172839506172839,18.51851851851852,0)" xlink:href="#bI"/><use transform="matrix(0.06172839506172839,0,0,0.06172839506172839,29.62962962962963,0)" xlink:href="#bo"/><use transform="matrix(0.06172839506172839,0,0,0.06172839506172839,35.80246913580247,0)" xlink:href="#bn"/><use transform="matrix(0.06172839506172839,0,0,0.06172839506172839,43.148148148148145,0)" xlink:href="#bF"/><use transform="matrix(0.06172839506172839,0,0,0.06172839506172839,55.49382716049382,0)" xlink:href="#br"/><use transform="matrix(0.06172839506172839,0,0,0.06172839506172839,66.60493827160494,0)" xlink:href="#bo"/><use transform="matrix(0.06172839506172839,0,0,0.06172839506172839,72.77777777777777,0)" xlink:href="#bv"/><use transform="matrix(0.06172839506172839,0,0,0.06172839506172839,85.12345679012346,0)" xlink:href="#bn"/></g><path d="M33-154v-36h34v36H33zM33 0v-36h34V0H33" id="bM"/><g id="s"><use transform="matrix(0.06172839506172839,0,0,0.06172839506172839,0,0)" xlink:href="#bx"/><use transform="matrix(0.06172839506172839,0,0,0.06172839506172839,12.345679012345679,0)" xlink:href="#bv"/><use transform="matrix(0.06172839506172839,0,0,0.06172839506172839,24.691358024691358,0)" xlink:href="#bo"/><use transform="matrix(0.06172839506172839,0,0,0.06172839506172839,30.864197530864196,0)" xlink:href="#bC"/><use transform="matrix(0.06172839506172839,0,0,0.06172839506172839,43.20987654320987,0)" xlink:href="#bM"/></g><path d="M127-220V0H93v-220H8v-28h204v28h-85" id="bN"/><g id="u"><use transform="matrix(0.06172839506172839,0,0,0.06172839506172839,0,0)" xlink:href="#bN"/><use transform="matrix(0.06172839506172839,0,0,0.06172839506172839,13.518518518518517,0)" xlink:href="#bu"/><use transform="matrix(0.06172839506172839,0,0,0.06172839506172839,25.864197530864196,0)" xlink:href="#bp"/><use transform="matrix(0.06172839506172839,0,0,0.06172839506172839,30.74074074074074,0)" xlink:href="#bI"/></g><g id="v"><use transform="matrix(0.06172839506172839,0,0,0.06172839506172839,0,0)" xlink:href="#bp"/><use transform="matrix(0.06172839506172839,0,0,0.06172839506172839,4.876543209876543,0)" xlink:href="#bI"/></g><use transform="matrix(0.06172839506172839,0,0,0.06172839506172839,0,0)" xlink:href="#bm" id="w"/><path d="M206 0h-36l-40-164L89 0H53L-1-190h32L70-26l43-164h34l41 164 42-164h31" id="bO"/><g id="x"><use transform="matrix(0.06172839506172839,0,0,0.06172839506172839,0,0)" xlink:href="#bI"/><use transform="matrix(0.06172839506172839,0,0,0.06172839506172839,11.11111111111111,0)" xlink:href="#bv"/><use transform="matrix(0.06172839506172839,0,0,0.06172839506172839,23.45679012345679,0)" xlink:href="#bq"/><use transform="matrix(0.06172839506172839,0,0,0.06172839506172839,29.62962962962963,0)" xlink:href="#bo"/><use transform="matrix(0.06172839506172839,0,0,0.06172839506172839,35.80246913580247,0)" xlink:href="#bO"/><use transform="matrix(0.06172839506172839,0,0,0.06172839506172839,51.79012345679012,0)" xlink:href="#bm"/><use transform="matrix(0.06172839506172839,0,0,0.06172839506172839,64.1358024691358,0)" xlink:href="#bn"/><use transform="matrix(0.06172839506172839,0,0,0.06172839506172839,71.48148148148148,0)" xlink:href="#bC"/></g><g id="y"><use transform="matrix(0.06172839506172839,0,0,0.06172839506172839,0,0)" xlink:href="#bm"/><use transform="matrix(0.06172839506172839,0,0,0.06172839506172839,12.345679012345679,0)" xlink:href="#bn"/><use transform="matrix(0.06172839506172839,0,0,0.06172839506172839,19.691358024691358,0)" xlink:href="#bo"/><use transform="matrix(0.06172839506172839,0,0,0.06172839506172839,25.864197530864196,0)" xlink:href="#bp"/><use transform="matrix(0.06172839506172839,0,0,0.06172839506172839,30.74074074074074,0)" xlink:href="#bq"/><use transform="matrix(0.06172839506172839,0,0,0.06172839506172839,36.91358024691358,0)" xlink:href="#bm"/><use transform="matrix(0.06172839506172839,0,0,0.06172839506172839,49.25925925925926,0)" xlink:href="#br"/><use transform="matrix(0.06172839506172839,0,0,0.06172839506172839,60.37037037037037,0)" xlink:href="#bo"/></g><g id="z"><use transform="matrix(0.06172839506172839,0,0,0.06172839506172839,0,0)" xlink:href="#bo"/><use transform="matrix(0.06172839506172839,0,0,0.06172839506172839,6.172839506172839,0)" xlink:href="#bu"/><use transform="matrix(0.06172839506172839,0,0,0.06172839506172839,18.51851851851852,0)" xlink:href="#bm"/><use transform="matrix(0.06172839506172839,0,0,0.06172839506172839,30.864197530864196,0)" xlink:href="#bo"/></g><path d="M210-169c-67 3-38 105-44 169h-31v-121c0-29-5-50-35-48C34-165 62-65 56 0H25l-1-190h30c1 10-1 24 2 32 10-44 99-50 107 0 11-21 27-35 58-36 85-2 47 119 55 194h-31v-121c0-29-5-49-35-48" id="bP"/><g id="A"><use transform="matrix(0.06172839506172839,0,0,0.06172839506172839,0,0)" xlink:href="#bo"/><use transform="matrix(0.06172839506172839,0,0,0.06172839506172839,6.172839506172839,0)" xlink:href="#bC"/><use transform="matrix(0.06172839506172839,0,0,0.06172839506172839,18.51851851851852,0)" xlink:href="#bm"/><use transform="matrix(0.06172839506172839,0,0,0.06172839506172839,30.864197530864196,0)" xlink:href="#bP"/></g><g id="B"><use transform="matrix(0.06172839506172839,0,0,0.06172839506172839,0,0)" xlink:href="#bv"/><use transform="matrix(0.06172839506172839,0,0,0.06172839506172839,12.345679012345679,0)" xlink:href="#bq"/></g><g id="C"><use transform="matrix(0.06172839506172839,0,0,0.06172839506172839,0,0)" xlink:href="#bm"/><use transform="matrix(0.06172839506172839,0,0,0.06172839506172839,12.345679012345679,0)" xlink:href="#bx"/><use transform="matrix(0.06172839506172839,0,0,0.06172839506172839,24.691358024691358,0)" xlink:href="#bm"/><use transform="matrix(0.06172839506172839,0,0,0.06172839506172839,37.03703703703704,0)" xlink:href="#bE"/><use transform="matrix(0.06172839506172839,0,0,0.06172839506172839,41.91358024691358,0)" xlink:href="#bA"/><use transform="matrix(0.06172839506172839,0,0,0.06172839506172839,53.0246913580247,0)" xlink:href="#bI"/><use transform="matrix(0.06172839506172839,0,0,0.06172839506172839,64.13580246913581,0)" xlink:href="#bo"/><use transform="matrix(0.06172839506172839,0,0,0.06172839506172839,70.30864197530865,0)" xlink:href="#bI"/></g><path d="M85-194c31 0 48 13 60 33l-1-100h32l1 261h-30c-2-10 0-23-3-31C134-8 116 4 85 4 32 4 16-35 15-94c0-66 23-100 70-100zm9 24c-40 0-46 34-46 75 0 40 6 74 45 74 42 0 51-32 51-76 0-42-9-74-50-73" id="bQ"/><g id="D"><use transform="matrix(0.06172839506172839,0,0,0.06172839506172839,0,0)" xlink:href="#bu"/><use transform="matrix(0.06172839506172839,0,0,0.06172839506172839,12.345679012345679,0)" xlink:href="#bC"/><use transform="matrix(0.06172839506172839,0,0,0.06172839506172839,24.691358024691358,0)" xlink:href="#bE"/><use transform="matrix(0.06172839506172839,0,0,0.06172839506172839,29.5679012345679,0)" xlink:href="#bw"/><use transform="matrix(0.06172839506172839,0,0,0.06172839506172839,41.913580246913575,0)" xlink:href="#bC"/><use transform="matrix(0.06172839506172839,0,0,0.06172839506172839,54.25925925925925,0)" xlink:href="#bQ"/></g><g id="E"><use transform="matrix(0.06172839506172839,0,0,0.06172839506172839,0,0)" xlink:href="#bo"/><use transform="matrix(0.06172839506172839,0,0,0.06172839506172839,6.172839506172839,0)" xlink:href="#bv"/></g><g id="F"><use transform="matrix(0.06172839506172839,0,0,0.06172839506172839,0,0)" xlink:href="#br"/><use transform="matrix(0.06172839506172839,0,0,0.06172839506172839,11.11111111111111,0)" xlink:href="#bn"/><use transform="matrix(0.06172839506172839,0,0,0.06172839506172839,18.45679012345679,0)" xlink:href="#bC"/><use transform="matrix(0.06172839506172839,0,0,0.06172839506172839,30.80246913580247,0)" xlink:href="#bm"/><use transform="matrix(0.06172839506172839,0,0,0.06172839506172839,43.148148148148145,0)" xlink:href="#bo"/><use transform="matrix(0.06172839506172839,0,0,0.06172839506172839,49.32098765432099,0)" xlink:href="#bC"/></g><g id="G"><use transform="matrix(0.06172839506172839,0,0,0.06172839506172839,0,0)" xlink:href="#bo"/><use transform="matrix(0.06172839506172839,0,0,0.06172839506172839,6.172839506172839,0)" xlink:href="#bu"/><use transform="matrix(0.06172839506172839,0,0,0.06172839506172839,18.51851851851852,0)" xlink:href="#bn"/><use transform="matrix(0.06172839506172839,0,0,0.06172839506172839,25.864197530864196,0)" xlink:href="#bv"/><use transform="matrix(0.06172839506172839,0,0,0.06172839506172839,38.20987654320987,0)" xlink:href="#bF"/><use transform="matrix(0.06172839506172839,0,0,0.06172839506172839,50.55555555555555,0)" xlink:href="#by"/><use transform="matrix(0.06172839506172839,0,0,0.06172839506172839,62.90123456790123,0)" xlink:href="#bu"/></g><g id="H"><use transform="matrix(0.06172839506172839,0,0,0.06172839506172839,0,0)" xlink:href="#bm"/><use transform="matrix(0.06172839506172839,0,0,0.06172839506172839,12.345679012345679,0)" xlink:href="#bx"/><use transform="matrix(0.06172839506172839,0,0,0.06172839506172839,24.691358024691358,0)" xlink:href="#bm"/><use transform="matrix(0.06172839506172839,0,0,0.06172839506172839,37.03703703703704,0)" xlink:href="#bE"/><use transform="matrix(0.06172839506172839,0,0,0.06172839506172839,41.91358024691358,0)" xlink:href="#bA"/><use transform="matrix(0.06172839506172839,0,0,0.06172839506172839,53.0246913580247,0)" xlink:href="#bI"/><use transform="matrix(0.06172839506172839,0,0,0.06172839506172839,64.13580246913581,0)" xlink:href="#bp"/><use transform="matrix(0.06172839506172839,0,0,0.06172839506172839,69.01234567901236,0)" xlink:href="#bI"/></g><g id="I"><use transform="matrix(0.06172839506172839,0,0,0.06172839506172839,0,0)" xlink:href="#bm"/><use transform="matrix(0.06172839506172839,0,0,0.06172839506172839,12.345679012345679,0)" xlink:href="#bx"/><use transform="matrix(0.06172839506172839,0,0,0.06172839506172839,24.691358024691358,0)" xlink:href="#bQ"/></g><path d="M33 0v-38h34V0H33" id="bR"/><g id="J"><use transform="matrix(0.06172839506172839,0,0,0.06172839506172839,0,0)" xlink:href="#bQ"/><use transform="matrix(0.06172839506172839,0,0,0.06172839506172839,12.345679012345679,0)" xlink:href="#bC"/><use transform="matrix(0.06172839506172839,0,0,0.06172839506172839,24.691358024691358,0)" xlink:href="#bI"/><use transform="matrix(0.06172839506172839,0,0,0.06172839506172839,35.80246913580247,0)" xlink:href="#bp"/><use transform="matrix(0.06172839506172839,0,0,0.06172839506172839,40.67901234567901,0)" xlink:href="#by"/><use transform="matrix(0.06172839506172839,0,0,0.06172839506172839,53.02469135802469,0)" xlink:href="#bx"/><use transform="matrix(0.06172839506172839,0,0,0.06172839506172839,65.37037037037037,0)" xlink:href="#bR"/></g><path d="M266 0h-40l-56-210L115 0H75L2-248h35L96-30l15-64 43-154h32l59 218 59-218h35" id="bS"/><g id="K"><use transform="matrix(0.06172839506172839,0,0,0.06172839506172839,0,0)" xlink:href="#bS"/><use transform="matrix(0.06172839506172839,0,0,0.06172839506172839,20.925925925925924,0)" xlink:href="#bu"/><use transform="matrix(0.06172839506172839,0,0,0.06172839506172839,33.2716049382716,0)" xlink:href="#bC"/><use transform="matrix(0.06172839506172839,0,0,0.06172839506172839,45.61728395061728,0)" xlink:href="#bx"/></g><g id="L"><use transform="matrix(0.06172839506172839,0,0,0.06172839506172839,0,0)" xlink:href="#bo"/><use transform="matrix(0.06172839506172839,0,0,0.06172839506172839,6.172839506172839,0)" xlink:href="#bu"/><use transform="matrix(0.06172839506172839,0,0,0.06172839506172839,18.51851851851852,0)" xlink:href="#bC"/><use transform="matrix(0.06172839506172839,0,0,0.06172839506172839,30.864197530864196,0)" xlink:href="#bA"/></g><g id="M"><use transform="matrix(0.06172839506172839,0,0,0.06172839506172839,0,0)" xlink:href="#br"/><use transform="matrix(0.06172839506172839,0,0,0.06172839506172839,11.11111111111111,0)" xlink:href="#bv"/><use transform="matrix(0.06172839506172839,0,0,0.06172839506172839,23.45679012345679,0)" xlink:href="#bP"/><use transform="matrix(0.06172839506172839,0,0,0.06172839506172839,41.91358024691358,0)" xlink:href="#bw"/><use transform="matrix(0.06172839506172839,0,0,0.06172839506172839,54.25925925925926,0)" xlink:href="#bE"/><use transform="matrix(0.06172839506172839,0,0,0.06172839506172839,59.135802469135804,0)" xlink:href="#bC"/><use transform="matrix(0.06172839506172839,0,0,0.06172839506172839,71.48148148148148,0)" xlink:href="#bo"/><use transform="matrix(0.06172839506172839,0,0,0.06172839506172839,77.65432098765432,0)" xlink:href="#bC"/><use transform="matrix(0.06172839506172839,0,0,0.06172839506172839,90,0)" xlink:href="#bQ"/></g><g id="N"><use transform="matrix(0.06172839506172839,0,0,0.06172839506172839,0,0)" xlink:href="#bo"/><use transform="matrix(0.06172839506172839,0,0,0.06172839506172839,6.172839506172839,0)" xlink:href="#bu"/><use transform="matrix(0.06172839506172839,0,0,0.06172839506172839,18.51851851851852,0)" xlink:href="#bC"/><use transform="matrix(0.06172839506172839,0,0,0.06172839506172839,30.864197530864196,0)" xlink:href="#bp"/><use transform="matrix(0.06172839506172839,0,0,0.06172839506172839,35.74074074074074,0)" xlink:href="#bn"/></g><path d="M68-38c1 34 0 65-14 84H32c9-13 17-26 17-46H33v-38h35" id="bT"/><g id="O"><use transform="matrix(0.06172839506172839,0,0,0.06172839506172839,0,0)" xlink:href="#bQ"/><use transform="matrix(0.06172839506172839,0,0,0.06172839506172839,12.345679012345679,0)" xlink:href="#bC"/><use transform="matrix(0.06172839506172839,0,0,0.06172839506172839,24.691358024691358,0)" xlink:href="#bI"/><use transform="matrix(0.06172839506172839,0,0,0.06172839506172839,35.80246913580247,0)" xlink:href="#bp"/><use transform="matrix(0.06172839506172839,0,0,0.06172839506172839,40.67901234567901,0)" xlink:href="#by"/><use transform="matrix(0.06172839506172839,0,0,0.06172839506172839,53.02469135802469,0)" xlink:href="#bx"/><use transform="matrix(0.06172839506172839,0,0,0.06172839506172839,65.37037037037037,0)" xlink:href="#bT"/></g><g id="P"><use transform="matrix(0.06172839506172839,0,0,0.06172839506172839,0,0)" xlink:href="#bo"/><use transform="matrix(0.06172839506172839,0,0,0.06172839506172839,6.172839506172839,0)" xlink:href="#bu"/><use transform="matrix(0.06172839506172839,0,0,0.06172839506172839,18.51851851851852,0)" xlink:href="#bC"/><use transform="matrix(0.06172839506172839,0,0,0.06172839506172839,30.864197530864196,0)" xlink:href="#bA"/></g><g id="Q"><use transform="matrix(0.06172839506172839,0,0,0.06172839506172839,0,0)" xlink:href="#bw"/><use transform="matrix(0.06172839506172839,0,0,0.06172839506172839,12.345679012345679,0)" xlink:href="#bm"/><use transform="matrix(0.06172839506172839,0,0,0.06172839506172839,24.691358024691358,0)" xlink:href="#bI"/><use transform="matrix(0.06172839506172839,0,0,0.06172839506172839,35.80246913580247,0)" xlink:href="#bI"/><use transform="matrix(0.06172839506172839,0,0,0.06172839506172839,46.91358024691358,0)" xlink:href="#bC"/><use transform="matrix(0.06172839506172839,0,0,0.06172839506172839,59.25925925925926,0)" xlink:href="#bQ"/></g><g id="R"><use transform="matrix(0.06172839506172839,0,0,0.06172839506172839,0,0)" xlink:href="#bo"/><use transform="matrix(0.06172839506172839,0,0,0.06172839506172839,6.172839506172839,0)" xlink:href="#bu"/><use transform="matrix(0.06172839506172839,0,0,0.06172839506172839,18.51851851851852,0)" xlink:href="#bC"/></g><g id="S"><use transform="matrix(0.06172839506172839,0,0,0.06172839506172839,0,0)" xlink:href="#bQ"/><use transform="matrix(0.06172839506172839,0,0,0.06172839506172839,12.345679012345679,0)" xlink:href="#bC"/><use transform="matrix(0.06172839506172839,0,0,0.06172839506172839,24.691358024691358,0)" xlink:href="#bI"/><use transform="matrix(0.06172839506172839,0,0,0.06172839506172839,35.80246913580247,0)" xlink:href="#bp"/><use transform="matrix(0.06172839506172839,0,0,0.06172839506172839,40.67901234567901,0)" xlink:href="#by"/><use transform="matrix(0.06172839506172839,0,0,0.06172839506172839,53.02469135802469,0)" xlink:href="#bx"/></g><g id="T"><use transform="matrix(0.06172839506172839,0,0,0.06172839506172839,0,0)" xlink:href="#bv"/><use transform="matrix(0.06172839506172839,0,0,0.06172839506172839,12.345679012345679,0)" xlink:href="#bq"/><use transform="matrix(0.06172839506172839,0,0,0.06172839506172839,18.08641975308642,0)" xlink:href="#bq"/></g><g id="U"><use transform="matrix(0.06172839506172839,0,0,0.06172839506172839,0,0)" xlink:href="#bv"/><use transform="matrix(0.06172839506172839,0,0,0.06172839506172839,12.345679012345679,0)" xlink:href="#bo"/><use transform="matrix(0.06172839506172839,0,0,0.06172839506172839,18.51851851851852,0)" xlink:href="#bu"/><use transform="matrix(0.06172839506172839,0,0,0.06172839506172839,30.864197530864196,0)" xlink:href="#bC"/><use transform="matrix(0.06172839506172839,0,0,0.06172839506172839,43.20987654320987,0)" xlink:href="#bn"/></g><g id="V"><use transform="matrix(0.06172839506172839,0,0,0.06172839506172839,0,0)" xlink:href="#bP"/><use transform="matrix(0.06172839506172839,0,0,0.06172839506172839,18.456790123456788,0)" xlink:href="#bC"/><use transform="matrix(0.06172839506172839,0,0,0.06172839506172839,30.80246913580247,0)" xlink:href="#bP"/><use transform="matrix(0.06172839506172839,0,0,0.06172839506172839,49.25925925925925,0)" xlink:href="#bD"/><use transform="matrix(0.06172839506172839,0,0,0.06172839506172839,61.60493827160493,0)" xlink:href="#bC"/><use transform="matrix(0.06172839506172839,0,0,0.06172839506172839,73.9506172839506,0)" xlink:href="#bn"/><use transform="matrix(0.06172839506172839,0,0,0.06172839506172839,81.29629629629629,0)" xlink:href="#bI"/></g><path d="M143 0L79-87 56-68V0H24v-261h32v163l83-92h37l-77 82L181 0h-38" id="bU"/><g id="W"><use transform="matrix(0.06172839506172839,0,0,0.06172839506172839,0,0)" xlink:href="#bO"/><use transform="matrix(0.06172839506172839,0,0,0.06172839506172839,15.987654320987653,0)" xlink:href="#bv"/><use transform="matrix(0.06172839506172839,0,0,0.06172839506172839,28.333333333333332,0)" xlink:href="#bn"/><use transform="matrix(0.06172839506172839,0,0,0.06172839506172839,35.67901234567901,0)" xlink:href="#bU"/><use transform="matrix(0.06172839506172839,0,0,0.06172839506172839,46.79012345679013,0)" xlink:href="#bp"/><use transform="matrix(0.06172839506172839,0,0,0.06172839506172839,51.66666666666667,0)" xlink:href="#bx"/><use transform="matrix(0.06172839506172839,0,0,0.06172839506172839,64.01234567901236,0)" xlink:href="#by"/></g><g id="X"><use transform="matrix(0.06172839506172839,0,0,0.06172839506172839,0,0)" xlink:href="#bp"/><use transform="matrix(0.06172839506172839,0,0,0.06172839506172839,4.876543209876543,0)" xlink:href="#bx"/></g><g id="Y"><use transform="matrix(0.06172839506172839,0,0,0.06172839506172839,0,0)" xlink:href="#bp"/><use transform="matrix(0.06172839506172839,0,0,0.06172839506172839,4.876543209876543,0)" xlink:href="#bP"/><use transform="matrix(0.06172839506172839,0,0,0.06172839506172839,23.33333333333333,0)" xlink:href="#bw"/><use transform="matrix(0.06172839506172839,0,0,0.06172839506172839,35.679012345679006,0)" xlink:href="#bE"/><use transform="matrix(0.06172839506172839,0,0,0.06172839506172839,40.55555555555555,0)" xlink:href="#bC"/><use transform="matrix(0.06172839506172839,0,0,0.06172839506172839,52.90123456790123,0)" xlink:href="#bP"/><use transform="matrix(0.06172839506172839,0,0,0.06172839506172839,71.35802469135801,0)" xlink:href="#bC"/><use transform="matrix(0.06172839506172839,0,0,0.06172839506172839,83.7037037037037,0)" xlink:href="#bx"/><use transform="matrix(0.06172839506172839,0,0,0.06172839506172839,96.04938271604938,0)" xlink:href="#bo"/><use transform="matrix(0.06172839506172839,0,0,0.06172839506172839,102.22222222222221,0)" xlink:href="#bm"/><use transform="matrix(0.06172839506172839,0,0,0.06172839506172839,114.5679012345679,0)" xlink:href="#bo"/><use transform="matrix(0.06172839506172839,0,0,0.06172839506172839,120.74074074074073,0)" xlink:href="#bp"/><use transform="matrix(0.06172839506172839,0,0,0.06172839506172839,125.61728395061728,0)" xlink:href="#bv"/><use transform="matrix(0.06172839506172839,0,0,0.06172839506172839,137.96296296296296,0)" xlink:href="#bx"/></g><g id="Z"><use transform="matrix(0.06172839506172839,0,0,0.06172839506172839,0,0)" xlink:href="#bw"/><use transform="matrix(0.06172839506172839,0,0,0.06172839506172839,12.345679012345679,0)" xlink:href="#bu"/><use transform="matrix(0.06172839506172839,0,0,0.06172839506172839,24.691358024691358,0)" xlink:href="#bm"/><use transform="matrix(0.06172839506172839,0,0,0.06172839506172839,37.03703703703704,0)" xlink:href="#bI"/><use transform="matrix(0.06172839506172839,0,0,0.06172839506172839,48.14814814814815,0)" xlink:href="#bC"/></g><g id="aa"><use transform="matrix(0.06172839506172839,0,0,0.06172839506172839,0,0)" xlink:href="#bm"/><use transform="matrix(0.06172839506172839,0,0,0.06172839506172839,12.345679012345679,0)" xlink:href="#bx"/><use transform="matrix(0.06172839506172839,0,0,0.06172839506172839,24.691358024691358,0)" xlink:href="#bQ"/></g><g id="ab"><use transform="matrix(0.06172839506172839,0,0,0.06172839506172839,0,0)" xlink:href="#bo"/><use transform="matrix(0.06172839506172839,0,0,0.06172839506172839,6.172839506172839,0)" xlink:href="#bu"/><use transform="matrix(0.06172839506172839,0,0,0.06172839506172839,18.51851851851852,0)" xlink:href="#bC"/></g><g id="ac"><use transform="matrix(0.06172839506172839,0,0,0.06172839506172839,0,0)" xlink:href="#bQ"/><use transform="matrix(0.06172839506172839,0,0,0.06172839506172839,12.345679012345679,0)" xlink:href="#bC"/><use transform="matrix(0.06172839506172839,0,0,0.06172839506172839,24.691358024691358,0)" xlink:href="#bH"/><use transform="matrix(0.06172839506172839,0,0,0.06172839506172839,35.80246913580247,0)" xlink:href="#bC"/><use transform="matrix(0.06172839506172839,0,0,0.06172839506172839,48.148148148148145,0)" xlink:href="#bE"/><use transform="matrix(0.06172839506172839,0,0,0.06172839506172839,53.02469135802469,0)" xlink:href="#bv"/><use transform="matrix(0.06172839506172839,0,0,0.06172839506172839,65.37037037037037,0)" xlink:href="#bw"/><use transform="matrix(0.06172839506172839,0,0,0.06172839506172839,77.71604938271605,0)" xlink:href="#bC"/><use transform="matrix(0.06172839506172839,0,0,0.06172839506172839,90.06172839506173,0)" xlink:href="#bn"/><use transform="matrix(0.06172839506172839,0,0,0.06172839506172839,97.40740740740742,0)" xlink:href="#bI"/></g><g id="ad"><use transform="matrix(0.06172839506172839,0,0,0.06172839506172839,0,0)" xlink:href="#bo"/><use transform="matrix(0.06172839506172839,0,0,0.06172839506172839,6.172839506172839,0)" xlink:href="#bu"/><use transform="matrix(0.06172839506172839,0,0,0.06172839506172839,18.51851851851852,0)" xlink:href="#bC"/><use transform="matrix(0.06172839506172839,0,0,0.06172839506172839,30.864197530864196,0)" xlink:href="#bn"/><use transform="matrix(0.06172839506172839,0,0,0.06172839506172839,38.20987654320987,0)" xlink:href="#bC"/></g><g id="ae"><use transform="matrix(0.06172839506172839,0,0,0.06172839506172839,0,0)" xlink:href="#bw"/><use transform="matrix(0.06172839506172839,0,0,0.06172839506172839,12.345679012345679,0)" xlink:href="#bn"/><use transform="matrix(0.06172839506172839,0,0,0.06172839506172839,19.691358024691358,0)" xlink:href="#bv"/><use transform="matrix(0.06172839506172839,0,0,0.06172839506172839,32.03703703703704,0)" xlink:href="#bQ"/><use transform="matrix(0.06172839506172839,0,0,0.06172839506172839,44.382716049382715,0)" xlink:href="#bF"/><use transform="matrix(0.06172839506172839,0,0,0.06172839506172839,56.72839506172839,0)" xlink:href="#br"/><use transform="matrix(0.06172839506172839,0,0,0.06172839506172839,67.8395061728395,0)" xlink:href="#bC"/><use transform="matrix(0.06172839506172839,0,0,0.06172839506172839,80.18518518518519,0)" xlink:href="#bQ"/></g><g id="af"><use transform="matrix(0.06172839506172839,0,0,0.06172839506172839,0,0)" xlink:href="#bo"/><use transform="matrix(0.06172839506172839,0,0,0.06172839506172839,6.172839506172839,0)" xlink:href="#bu"/><use transform="matrix(0.06172839506172839,0,0,0.06172839506172839,18.51851851851852,0)" xlink:href="#bp"/><use transform="matrix(0.06172839506172839,0,0,0.06172839506172839,23.395061728395063,0)" xlink:href="#bI"/></g><path d="M109-170H84l-4-78h32zm-65 0H19l-4-78h33" id="bV"/><g id="ag"><use transform="matrix(0.06172839506172839,0,0,0.06172839506172839,0,0)" xlink:href="#bV"/><use transform="matrix(0.06172839506172839,0,0,0.06172839506172839,7.8395061728395055,0)" xlink:href="#bm"/><use transform="matrix(0.06172839506172839,0,0,0.06172839506172839,20.185185185185183,0)" xlink:href="#bt"/><use transform="matrix(0.06172839506172839,0,0,0.06172839506172839,35,0)" xlink:href="#bu"/><use transform="matrix(0.06172839506172839,0,0,0.06172839506172839,47.34567901234568,0)" xlink:href="#bv"/><use transform="matrix(0.06172839506172839,0,0,0.06172839506172839,59.691358024691354,0)" xlink:href="#bw"/><use transform="matrix(0.06172839506172839,0,0,0.06172839506172839,72.03703703703704,0)" xlink:href="#bw"/><use transform="matrix(0.06172839506172839,0,0,0.06172839506172839,84.38271604938272,0)" xlink:href="#bp"/><use transform="matrix(0.06172839506172839,0,0,0.06172839506172839,89.25925925925927,0)" xlink:href="#bx"/><use transform="matrix(0.06172839506172839,0,0,0.06172839506172839,101.60493827160495,0)" xlink:href="#by"/><use transform="matrix(0.06172839506172839,0,0,0.06172839506172839,113.95061728395063,0)" xlink:href="#bz"/><use transform="matrix(0.06172839506172839,0,0,0.06172839506172839,128.76543209876544,0)" xlink:href="#bw"/><use transform="matrix(0.06172839506172839,0,0,0.06172839506172839,141.11111111111111,0)" xlink:href="#bw"/><use transform="matrix(0.06172839506172839,0,0,0.06172839506172839,153.45679012345678,0)" xlink:href="#bV"/></g><g id="ah"><use transform="matrix(0.06172839506172839,0,0,0.06172839506172839,0,0)" xlink:href="#bq"/><use transform="matrix(0.06172839506172839,0,0,0.06172839506172839,6.172839506172839,0)" xlink:href="#bp"/><use transform="matrix(0.06172839506172839,0,0,0.06172839506172839,11.049382716049383,0)" xlink:href="#bE"/><use transform="matrix(0.06172839506172839,0,0,0.06172839506172839,15.925925925925926,0)" xlink:href="#bC"/></g><path d="M87 75C49 33 22-17 22-94c0-76 28-126 65-167h31c-38 41-64 92-64 168S80 34 118 75H87" id="bW"/><g id="ai"><use transform="matrix(0.06172839506172839,0,0,0.06172839506172839,0,0)" xlink:href="#bW"/><use transform="matrix(0.06172839506172839,0,0,0.06172839506172839,7.345679012345679,0)" xlink:href="#bm"/><use transform="matrix(0.06172839506172839,0,0,0.06172839506172839,19.691358024691358,0)" xlink:href="#bE"/><use transform="matrix(0.06172839506172839,0,0,0.06172839506172839,24.5679012345679,0)" xlink:href="#bv"/><use transform="matrix(0.06172839506172839,0,0,0.06172839506172839,36.913580246913575,0)" xlink:href="#bx"/><use transform="matrix(0.06172839506172839,0,0,0.06172839506172839,49.25925925925925,0)" xlink:href="#by"/></g><g id="aj"><use transform="matrix(0.06172839506172839,0,0,0.06172839506172839,0,0)" xlink:href="#bO"/><use transform="matrix(0.06172839506172839,0,0,0.06172839506172839,15.987654320987653,0)" xlink:href="#bp"/><use transform="matrix(0.06172839506172839,0,0,0.06172839506172839,20.864197530864196,0)" xlink:href="#bo"/><use transform="matrix(0.06172839506172839,0,0,0.06172839506172839,27.037037037037035,0)" xlink:href="#bu"/></g><g id="ak"><use transform="matrix(0.06172839506172839,0,0,0.06172839506172839,0,0)" xlink:href="#bP"/><use transform="matrix(0.06172839506172839,0,0,0.06172839506172839,18.456790123456788,0)" xlink:href="#bm"/><use transform="matrix(0.06172839506172839,0,0,0.06172839506172839,30.80246913580247,0)" xlink:href="#bx"/><use transform="matrix(0.06172839506172839,0,0,0.06172839506172839,43.148148148148145,0)" xlink:href="#bA"/></g><g id="al"><use transform="matrix(0.06172839506172839,0,0,0.06172839506172839,0,0)" xlink:href="#bv"/><use transform="matrix(0.06172839506172839,0,0,0.06172839506172839,12.345679012345679,0)" xlink:href="#bo"/><use transform="matrix(0.06172839506172839,0,0,0.06172839506172839,18.51851851851852,0)" xlink:href="#bu"/><use transform="matrix(0.06172839506172839,0,0,0.06172839506172839,30.864197530864196,0)" xlink:href="#bC"/><use transform="matrix(0.06172839506172839,0,0,0.06172839506172839,43.20987654320987,0)" xlink:href="#bn"/></g><g id="am"><use transform="matrix(0.06172839506172839,0,0,0.06172839506172839,0,0)" xlink:href="#bw"/><use transform="matrix(0.06172839506172839,0,0,0.06172839506172839,12.345679012345679,0)" xlink:href="#bp"/><use transform="matrix(0.06172839506172839,0,0,0.06172839506172839,17.22222222222222,0)" xlink:href="#bC"/><use transform="matrix(0.06172839506172839,0,0,0.06172839506172839,29.5679012345679,0)" xlink:href="#br"/><use transform="matrix(0.06172839506172839,0,0,0.06172839506172839,40.67901234567901,0)" xlink:href="#bC"/><use transform="matrix(0.06172839506172839,0,0,0.06172839506172839,53.02469135802469,0)" xlink:href="#bI"/></g><g id="an"><use transform="matrix(0.06172839506172839,0,0,0.06172839506172839,0,0)" xlink:href="#bv"/><use transform="matrix(0.06172839506172839,0,0,0.06172839506172839,12.345679012345679,0)" xlink:href="#bq"/></g><path d="M33-261c38 41 65 92 65 168S71 34 33 75H2C39 34 66-17 66-93S39-220 2-261h31" id="bX"/><g id="ao"><use transform="matrix(0.06172839506172839,0,0,0.06172839506172839,0,0)" xlink:href="#bI"/><use transform="matrix(0.06172839506172839,0,0,0.06172839506172839,11.11111111111111,0)" xlink:href="#bv"/><use transform="matrix(0.06172839506172839,0,0,0.06172839506172839,23.45679012345679,0)" xlink:href="#bq"/><use transform="matrix(0.06172839506172839,0,0,0.06172839506172839,29.62962962962963,0)" xlink:href="#bo"/><use transform="matrix(0.06172839506172839,0,0,0.06172839506172839,35.80246913580247,0)" xlink:href="#bO"/><use transform="matrix(0.06172839506172839,0,0,0.06172839506172839,51.79012345679012,0)" xlink:href="#bm"/><use transform="matrix(0.06172839506172839,0,0,0.06172839506172839,64.1358024691358,0)" xlink:href="#bn"/><use transform="matrix(0.06172839506172839,0,0,0.06172839506172839,71.48148148148148,0)" xlink:href="#bC"/><use transform="matrix(0.06172839506172839,0,0,0.06172839506172839,83.82716049382717,0)" xlink:href="#bR"/><use transform="matrix(0.06172839506172839,0,0,0.06172839506172839,90,0)" xlink:href="#bX"/></g><g id="ap"><use transform="matrix(0.06172839506172839,0,0,0.06172839506172839,0,0)" xlink:href="#bN"/><use transform="matrix(0.06172839506172839,0,0,0.06172839506172839,13.518518518518517,0)" xlink:href="#bu"/><use transform="matrix(0.06172839506172839,0,0,0.06172839506172839,25.864197530864196,0)" xlink:href="#bp"/><use transform="matrix(0.06172839506172839,0,0,0.06172839506172839,30.74074074074074,0)" xlink:href="#bI"/></g><g id="aq"><use transform="matrix(0.06172839506172839,0,0,0.06172839506172839,0,0)" xlink:href="#bI"/><use transform="matrix(0.06172839506172839,0,0,0.06172839506172839,11.11111111111111,0)" xlink:href="#bC"/><use transform="matrix(0.06172839506172839,0,0,0.06172839506172839,23.45679012345679,0)" xlink:href="#bx"/><use transform="matrix(0.06172839506172839,0,0,0.06172839506172839,35.80246913580247,0)" xlink:href="#bo"/></g><g id="ar"><use transform="matrix(0.06172839506172839,0,0,0.06172839506172839,0,0)" xlink:href="#bv"/><use transform="matrix(0.06172839506172839,0,0,0.06172839506172839,12.345679012345679,0)" xlink:href="#bF"/><use transform="matrix(0.06172839506172839,0,0,0.06172839506172839,24.691358024691358,0)" xlink:href="#bo"/></g><g id="as"><use transform="matrix(0.06172839506172839,0,0,0.06172839506172839,0,0)" xlink:href="#bo"/><use transform="matrix(0.06172839506172839,0,0,0.06172839506172839,6.172839506172839,0)" xlink:href="#bv"/></g><g id="at"><use transform="matrix(0.06172839506172839,0,0,0.06172839506172839,0,0)" xlink:href="#br"/><use transform="matrix(0.06172839506172839,0,0,0.06172839506172839,11.11111111111111,0)" xlink:href="#bF"/><use transform="matrix(0.06172839506172839,0,0,0.06172839506172839,23.45679012345679,0)" xlink:href="#bI"/><use transform="matrix(0.06172839506172839,0,0,0.06172839506172839,34.5679012345679,0)" xlink:href="#bo"/><use transform="matrix(0.06172839506172839,0,0,0.06172839506172839,40.74074074074074,0)" xlink:href="#bv"/><use transform="matrix(0.06172839506172839,0,0,0.06172839506172839,53.08641975308642,0)" xlink:href="#bP"/><use transform="matrix(0.06172839506172839,0,0,0.06172839506172839,71.5432098765432,0)" xlink:href="#bC"/><use transform="matrix(0.06172839506172839,0,0,0.06172839506172839,83.88888888888889,0)" xlink:href="#bn"/><use transform="matrix(0.06172839506172839,0,0,0.06172839506172839,91.23456790123457,0)" xlink:href="#bI"/></g><g id="au"><use transform="matrix(0.06172839506172839,0,0,0.06172839506172839,0,0)" xlink:href="#bp"/><use transform="matrix(0.06172839506172839,0,0,0.06172839506172839,4.876543209876543,0)" xlink:href="#bx"/><use transform="matrix(0.06172839506172839,0,0,0.06172839506172839,17.22222222222222,0)" xlink:href="#bI"/><use transform="matrix(0.06172839506172839,0,0,0.06172839506172839,28.333333333333332,0)" xlink:href="#bo"/><use transform="matrix(0.06172839506172839,0,0,0.06172839506172839,34.50617283950617,0)" xlink:href="#bm"/><use transform="matrix(0.06172839506172839,0,0,0.06172839506172839,46.85185185185185,0)" xlink:href="#bE"/><use transform="matrix(0.06172839506172839,0,0,0.06172839506172839,51.72839506172839,0)" xlink:href="#bE"/></g><g id="av"><use transform="matrix(0.06172839506172839,0,0,0.06172839506172839,0,0)" xlink:href="#bv"/><use transform="matrix(0.06172839506172839,0,0,0.06172839506172839,12.345679012345679,0)" xlink:href="#bx"/></g><g id="aw"><use transform="matrix(0.06172839506172839,0,0,0.06172839506172839,0,0)" xlink:href="#bw"/><use transform="matrix(0.06172839506172839,0,0,0.06172839506172839,12.345679012345679,0)" xlink:href="#bu"/><use transform="matrix(0.06172839506172839,0,0,0.06172839506172839,24.691358024691358,0)" xlink:href="#bv"/><use transform="matrix(0.06172839506172839,0,0,0.06172839506172839,37.03703703703704,0)" xlink:href="#bx"/><use transform="matrix(0.06172839506172839,0,0,0.06172839506172839,49.382716049382715,0)" xlink:href="#bC"/><use transform="matrix(0.06172839506172839,0,0,0.06172839506172839,61.72839506172839,0)" xlink:href="#bI"/><use transform="matrix(0.06172839506172839,0,0,0.06172839506172839,72.8395061728395,0)" xlink:href="#bR"/></g><g id="ax"><use transform="matrix(0.06172839506172839,0,0,0.06172839506172839,0,0)" xlink:href="#bN"/><use transform="matrix(0.06172839506172839,0,0,0.06172839506172839,13.518518518518517,0)" xlink:href="#bu"/><use transform="matrix(0.06172839506172839,0,0,0.06172839506172839,25.864197530864196,0)" xlink:href="#bC"/><use transform="matrix(0.06172839506172839,0,0,0.06172839506172839,38.20987654320987,0)" xlink:href="#bA"/></g><g id="ay"><use transform="matrix(0.06172839506172839,0,0,0.06172839506172839,0,0)" xlink:href="#bF"/><use transform="matrix(0.06172839506172839,0,0,0.06172839506172839,12.345679012345679,0)" xlink:href="#bI"/><use transform="matrix(0.06172839506172839,0,0,0.06172839506172839,23.45679012345679,0)" xlink:href="#bC"/></g><g id="az"><use transform="matrix(0.06172839506172839,0,0,0.06172839506172839,0,0)" xlink:href="#bp"/><use transform="matrix(0.06172839506172839,0,0,0.06172839506172839,4.876543209876543,0)" xlink:href="#bo"/></g><g id="aA"><use transform="matrix(0.06172839506172839,0,0,0.06172839506172839,0,0)" xlink:href="#bI"/><use transform="matrix(0.06172839506172839,0,0,0.06172839506172839,11.11111111111111,0)" xlink:href="#bu"/><use transform="matrix(0.06172839506172839,0,0,0.06172839506172839,23.45679012345679,0)" xlink:href="#bv"/><use transform="matrix(0.06172839506172839,0,0,0.06172839506172839,35.80246913580247,0)" xlink:href="#bw"/></g><g id="aB"><use transform="matrix(0.06172839506172839,0,0,0.06172839506172839,0,0)" xlink:href="#bO"/><use transform="matrix(0.06172839506172839,0,0,0.06172839506172839,15.987654320987653,0)" xlink:href="#bC"/><use transform="matrix(0.06172839506172839,0,0,0.06172839506172839,28.333333333333332,0)" xlink:href="#bD"/><use transform="matrix(0.06172839506172839,0,0,0.06172839506172839,40.67901234567901,0)" xlink:href="#bI"/><use transform="matrix(0.06172839506172839,0,0,0.06172839506172839,51.79012345679013,0)" xlink:href="#bp"/><use transform="matrix(0.06172839506172839,0,0,0.06172839506172839,56.66666666666667,0)" xlink:href="#bo"/><use transform="matrix(0.06172839506172839,0,0,0.06172839506172839,62.83950617283951,0)" xlink:href="#bC"/></g><g id="aC"><use transform="matrix(0.06172839506172839,0,0,0.06172839506172839,0,0)" xlink:href="#bp"/><use transform="matrix(0.06172839506172839,0,0,0.06172839506172839,4.876543209876543,0)" xlink:href="#bx"/><use transform="matrix(0.06172839506172839,0,0,0.06172839506172839,17.22222222222222,0)" xlink:href="#bI"/><use transform="matrix(0.06172839506172839,0,0,0.06172839506172839,28.333333333333332,0)" xlink:href="#bo"/><use transform="matrix(0.06172839506172839,0,0,0.06172839506172839,34.50617283950617,0)" xlink:href="#bC"/><use transform="matrix(0.06172839506172839,0,0,0.06172839506172839,46.85185185185185,0)" xlink:href="#bm"/><use transform="matrix(0.06172839506172839,0,0,0.06172839506172839,59.197530864197525,0)" xlink:href="#bQ"/></g><g id="aD"><use transform="matrix(0.06172839506172839,0,0,0.06172839506172839,0,0)" xlink:href="#bD"/><use transform="matrix(0.06172839506172839,0,0,0.06172839506172839,12.345679012345679,0)" xlink:href="#bn"/><use transform="matrix(0.06172839506172839,0,0,0.06172839506172839,19.691358024691358,0)" xlink:href="#bv"/><use transform="matrix(0.06172839506172839,0,0,0.06172839506172839,32.03703703703704,0)" xlink:href="#bO"/><use transform="matrix(0.06172839506172839,0,0,0.06172839506172839,48.02469135802469,0)" xlink:href="#bI"/><use transform="matrix(0.06172839506172839,0,0,0.06172839506172839,59.1358024691358,0)" xlink:href="#bC"/><use transform="matrix(0.06172839506172839,0,0,0.06172839506172839,71.48148148148148,0)" xlink:href="#bn"/><use transform="matrix(0.06172839506172839,0,0,0.06172839506172839,77.5925925925926,0)" xlink:href="#bR"/></g><g id="aE"><use transform="matrix(0.05,0,0,0.05,0,0)" xlink:href="#bN"/><use transform="matrix(0.05,0,0,0.05,10.950000000000001,0)" xlink:href="#bu"/><use transform="matrix(0.05,0,0,0.05,20.950000000000003,0)" xlink:href="#bp"/><use transform="matrix(0.05,0,0,0.05,24.900000000000002,0)" xlink:href="#bI"/></g><g id="aF"><use transform="matrix(0.05,0,0,0.05,0,0)" xlink:href="#bm"/><use transform="matrix(0.05,0,0,0.05,10,0)" xlink:href="#bw"/><use transform="matrix(0.05,0,0,0.05,20,0)" xlink:href="#bw"/></g><g id="aG"><use transform="matrix(0.05,0,0,0.05,0,0)" xlink:href="#bn"/><use transform="matrix(0.05,0,0,0.05,5.95,0)" xlink:href="#bF"/><use transform="matrix(0.05,0,0,0.05,15.949999999999998,0)" xlink:href="#bx"/><use transform="matrix(0.05,0,0,0.05,25.950000000000003,0)" xlink:href="#bI"/></g><g id="aH"><use transform="matrix(0.05,0,0,0.05,0,0)" xlink:href="#bp"/><use transform="matrix(0.05,0,0,0.05,3.95,0)" xlink:href="#bx"/></g><g id="aI"><use transform="matrix(0.05,0,0,0.05,0,0)" xlink:href="#bv"/><use transform="matrix(0.05,0,0,0.05,10,0)" xlink:href="#bn"/></g><g id="aJ"><use transform="matrix(0.05,0,0,0.05,0,0)" xlink:href="#by"/><use transform="matrix(0.05,0,0,0.05,10,0)" xlink:href="#bn"/><use transform="matrix(0.05,0,0,0.05,15.949999999999998,0)" xlink:href="#bC"/><use transform="matrix(0.05,0,0,0.05,25.950000000000003,0)" xlink:href="#bm"/><use transform="matrix(0.05,0,0,0.05,35.95,0)" xlink:href="#bo"/><use transform="matrix(0.05,0,0,0.05,40.95,0)" xlink:href="#bC"/><use transform="matrix(0.05,0,0,0.05,50.95,0)" xlink:href="#bn"/></g><path d="M63-70H37l-4-178h34zM33 0v-35h34V0H33" id="bY"/><g id="aK"><use transform="matrix(0.05,0,0,0.05,0,0)" xlink:href="#bv"/><use transform="matrix(0.05,0,0,0.05,10,0)" xlink:href="#bx"/><use transform="matrix(0.05,0,0,0.05,20,0)" xlink:href="#bE"/><use transform="matrix(0.05,0,0,0.05,23.95,0)" xlink:href="#bA"/><use transform="matrix(0.05,0,0,0.05,32.95,0)" xlink:href="#bY"/></g><g id="aL"><use transform="matrix(0.14814814814814817,0,0,0.14814814814814817,0,0)" xlink:href="#bp"/><use transform="matrix(0.14814814814814817,0,0,0.14814814814814817,11.703703703703706,0)" xlink:href="#bB"/><use transform="matrix(0.14814814814814817,0,0,0.14814814814814817,47.25925925925927,0)" xlink:href="#bu"/><use transform="matrix(0.14814814814814817,0,0,0.14814814814814817,76.8888888888889,0)" xlink:href="#bv"/><use transform="matrix(0.14814814814814817,0,0,0.14814814814814817,106.51851851851853,0)" xlink:href="#bx"/><use transform="matrix(0.14814814814814817,0,0,0.14814814814814817,136.14814814814815,0)" xlink:href="#bC"/></g><g id="aM"><use transform="matrix(0.14814814814814817,0,0,0.14814814814814817,0,0)" xlink:href="#br"/><use transform="matrix(0.14814814814814817,0,0,0.14814814814814817,26.66666666666667,0)" xlink:href="#bE"/><use transform="matrix(0.14814814814814817,0,0,0.14814814814814817,38.37037037037038,0)" xlink:href="#bp"/><use transform="matrix(0.14814814814814817,0,0,0.14814814814814817,50.07407407407409,0)" xlink:href="#bC"/><use transform="matrix(0.14814814814814817,0,0,0.14814814814814817,79.70370370370374,0)" xlink:href="#bx"/><use transform="matrix(0.14814814814814817,0,0,0.14814814814814817,109.33333333333337,0)" xlink:href="#bo"/></g><g id="aN"><use transform="matrix(0.14814814814814817,0,0,0.14814814814814817,0,0)" xlink:href="#bx"/><use transform="matrix(0.14814814814814817,0,0,0.14814814814814817,29.629629629629633,0)" xlink:href="#bv"/><use transform="matrix(0.14814814814814817,0,0,0.14814814814814817,59.25925925925927,0)" xlink:href="#bQ"/><use transform="matrix(0.14814814814814817,0,0,0.14814814814814817,88.8888888888889,0)" xlink:href="#bC"/></g><path d="M232-93c-1 65-40 97-104 97C67 4 28-28 28-90v-158h33c8 89-33 224 67 224 102 0 64-133 71-224h33v155" id="bZ"/><path d="M240 0l2-218c-23 76-54 145-80 218h-23L58-218 59 0H30v-248h44l77 211c21-75 51-140 76-211h43V0h-30" id="ca"/><path d="M30 0v-248h33v221h125V0H30" id="cb"/><g id="aO"><use transform="matrix(0.14814814814814817,0,0,0.14814814814814817,0,0)" xlink:href="#bZ"/><use transform="matrix(0.14814814814814817,0,0,0.14814814814814817,38.370370370370374,0)" xlink:href="#ca"/><use transform="matrix(0.14814814814814817,0,0,0.14814814814814817,82.66666666666667,0)" xlink:href="#cb"/></g><path d="M30-248c118-7 216 8 213 122C240-48 200 0 122 0H30v-248zM63-27c89 8 146-16 146-99s-60-101-146-95v194" id="cc"/><g id="aP"><use transform="matrix(0.14814814814814817,0,0,0.14814814814814817,0,0)" xlink:href="#cc"/><use transform="matrix(0.14814814814814817,0,0,0.14814814814814817,38.370370370370374,0)" xlink:href="#bC"/><use transform="matrix(0.14814814814814817,0,0,0.14814814814814817,68,0)" xlink:href="#bw"/><use transform="matrix(0.14814814814814817,0,0,0.14814814814814817,97.62962962962962,0)" xlink:href="#bE"/><use transform="matrix(0.14814814814814817,0,0,0.14814814814814817,109.33333333333334,0)" xlink:href="#bv"/><use transform="matrix(0.14814814814814817,0,0,0.14814814814814817,138.962962962963,0)" xlink:href="#bA"/><use transform="matrix(0.14814814814814817,0,0,0.14814814814814817,165.62962962962968,0)" xlink:href="#bP"/><use transform="matrix(0.14814814814814817,0,0,0.14814814814814817,209.92592592592598,0)" xlink:href="#bC"/><use transform="matrix(0.14814814814814817,0,0,0.14814814814814817,239.5555555555556,0)" xlink:href="#bx"/><use transform="matrix(0.14814814814814817,0,0,0.14814814814814817,269.1851851851852,0)" xlink:href="#bo"/></g><g id="aQ"><use transform="matrix(0.14814814814814817,0,0,0.14814814814814817,0,0)" xlink:href="#cc"/><use transform="matrix(0.14814814814814817,0,0,0.14814814814814817,38.370370370370374,0)" xlink:href="#bp"/><use transform="matrix(0.14814814814814817,0,0,0.14814814814814817,50.07407407407407,0)" xlink:href="#bm"/><use transform="matrix(0.14814814814814817,0,0,0.14814814814814817,79.70370370370371,0)" xlink:href="#by"/><use transform="matrix(0.14814814814814817,0,0,0.14814814814814817,109.33333333333334,0)" xlink:href="#bn"/><use transform="matrix(0.14814814814814817,0,0,0.14814814814814817,126.96296296296298,0)" xlink:href="#bm"/><use transform="matrix(0.14814814814814817,0,0,0.14814814814814817,156.5925925925926,0)" xlink:href="#bP"/></g><g id="aR"><use transform="matrix(0.05,0,0,0.05,0,0)" xlink:href="#bD"/><use transform="matrix(0.05,0,0,0.05,10,0)" xlink:href="#bA"/></g><path d="M233-177c-1 41-23 64-60 70L243 0h-38l-65-103H63V0H30v-248c88 3 205-21 203 71zM63-129c60-2 137 13 137-47 0-61-80-42-137-45v92" id="cd"/><g id="aS"><use transform="matrix(0.05,0,0,0.05,0,0)" xlink:href="#cd"/><use transform="matrix(0.05,0,0,0.05,12.950000000000001,0)" xlink:href="#bv"/><use transform="matrix(0.05,0,0,0.05,22.950000000000003,0)" xlink:href="#bx"/></g><path d="M160-131c35 5 61 23 61 61C221 17 115-2 30 0v-248c76 3 177-17 177 60 0 33-19 50-47 57zm-97-11c50-1 110 9 110-42 0-47-63-36-110-37v79zm0 115c55-2 124 14 124-45 0-56-70-42-124-44v89" id="ce"/><g id="aT"><use transform="matrix(0.05,0,0,0.05,0,0)" xlink:href="#ce"/><use transform="matrix(0.05,0,0,0.05,12,0)" xlink:href="#bC"/><use transform="matrix(0.05,0,0,0.05,22,0)" xlink:href="#bx"/><use transform="matrix(0.05,0,0,0.05,32,0)" xlink:href="#bQ"/><use transform="matrix(0.05,0,0,0.05,42,0)" xlink:href="#bC"/><use transform="matrix(0.05,0,0,0.05,52,0)" xlink:href="#bE"/><use transform="matrix(0.05,0,0,0.05,55.95,0)" xlink:href="#bC"/></g><g id="aU"><use transform="matrix(0.05,0,0,0.05,0,0)" xlink:href="#bv"/><use transform="matrix(0.05,0,0,0.05,10,0)" xlink:href="#bx"/></g><path d="M0 4l72-265h28L28 4H0" id="cf"/><path d="M64 0c3-98 48-159 88-221H18v-27h164v26C143-157 98-101 97 0H64" id="cg"/><path d="M99-251c64 0 84 50 84 122C183-37 130 33 47-8c-14-7-20-23-25-40l30-5c6 39 69 39 84 7 9-19 16-44 16-74-10 22-31 35-62 35-49 0-73-33-73-83 0-54 28-83 82-83zm-1 141c31-1 51-18 51-49 0-36-14-67-51-67-34 0-49 23-49 58 0 34 15 58 49 58" id="ch"/><g id="aV"><use transform="matrix(0.05,0,0,0.05,0,0)" xlink:href="#bJ"/><use transform="matrix(0.05,0,0,0.05,10,0)" xlink:href="#bK"/><use transform="matrix(0.05,0,0,0.05,20,0)" xlink:href="#cf"/><use transform="matrix(0.05,0,0,0.05,25,0)" xlink:href="#bJ"/><use transform="matrix(0.05,0,0,0.05,35,0)" xlink:href="#cg"/><use transform="matrix(0.05,0,0,0.05,45,0)" xlink:href="#cf"/><use transform="matrix(0.05,0,0,0.05,50,0)" xlink:href="#bJ"/><use transform="matrix(0.05,0,0,0.05,60,0)" xlink:href="#ch"/></g></defs></g></svg>